<svg xmlns="http://www.w3.org/2000/svg" version="1.1" width="892" height="206"><rect id="backgroundrect" width="100%" height="100%" x="0" y="0" fill="none" stroke="none" class="" style=""/>

<g class="currentLayer" style=""><title>Layer 1</title><g stroke-width="2.00" fill="none" stroke-linecap="butt" id="svg_1" class="">

</g><path fill="#111111" d="M226.69999977111817,187.59 A17.41,17.41 0 0 1 209.28999977111818,205 L18.409999771118166,205 A17.41,17.41 0 0 1 0.9999997711181638,187.59 L0.9999997711181638,18.409999999999997 A17.41,17.41 0 0 1 18.409999771118166,1 L209.28999977111818,1 A17.41,17.41 0 0 1 226.69999977111817,18.409999999999997 L226.69999977111817,187.59 zM168.72999977111817,144.75 Q168.02999977111816,144.75 168.43999977111815,144.17 C183.86999977111816,122.58000000000001 186.90999977111815,96.36 175.34999977111818,72.59 C156.35999977111817,33.52 106.65999977111817,21 71.69999977111816,47.61 C37.10999977111816,73.93 35.049999771118166,125.21000000000001 67.58999977111816,154.03 Q86.53999977111816,170.81 113.15999977111817,171.49 Q116.80999977111816,171.58 116.99999977111815,167.93 L117.03999977111818,167.02 A2.81,2.81 0 0 0 114.25999977111817,164.07 C55.00999977111816,163.55 29.429999771118162,89.9 76.36999977111816,53.769999999999996 C96.05999977111816,38.63 123.98999977111816,37.15 144.97999977111817,50.08 C176.43999977111815,69.45 184.33999977111816,111.14 161.68999977111815,140.16 A0.2900000000000001,0.2900000000000001 0 0 1 161.17999977111816,140.06 L158.03999977111818,128.32 A3,2.99 73.6 0 0 154.23999977111816,126.25 L153.49999977111815,126.49000000000001 A3.93,3.92 -16.4 0 0 150.89999977111816,131.24 L155.78999977111818,149.49 A4.07,4.06 -7.6 0 0 159.72999977111817,152.5 L179.22999977111817,152.49 A3.13,3.13 0 0 0 182.33999977111816,149.73 L182.45999977111816,148.71 A3.54,3.5300000000000002 3.5 0 0 178.94999977111817,144.75 L168.72999977111817,144.75 zM117.27349977111817,64.2667 A3.71,3.71 0 0 0 113.56989977111816,60.550200000000004 L113.36989977111817,60.549899999999994 A3.71,3.71 0 0 0 109.65349977111816,64.2534 L109.60649977111817,91.1333 A3.71,3.71 0 0 0 113.31009977111816,94.8498 L113.51009977111816,94.8501 A3.71,3.71 0 0 0 117.22649977111817,91.1466 L117.27349977111817,64.2667 zM129.55999977111816,118.75 C122.59999977111818,125.93 110.61999977111816,127.88 101.86999977111816,122.53999999999999 C93.90999977111817,117.68 89.58999977111816,108.91 90.57999977111817,99.54 Q91.51999977111817,90.69 101.09999977111816,82.86 A2.79,2.7800000000000002 -40 0 0 101.44999977111816,78.89 L100.86999977111816,78.2 Q98.54999977111817,75.49 95.70999977111816,77.64 Q85.70999977111816,85.24 83.45999977111816,96.31 C79.87999977111816,114 92.57999977111817,131.78 111.00999977111816,133.12 C140.48999977111816,135.27 155.48999977111816,99.05 133.42999977111816,79.31 Q131.06999977111818,77.2 129.42999977111816,76.82 C126.77999977111816,76.21 124.41999977111817,79.18 125.10999977111817,81.51 Q125.46999977111815,82.73 127.52999977111816,84.44 C138.61999977111816,93.61 139.36999977111816,108.64 129.55999977111816,118.75 z" id="svg_21" class=""/><path fill="#ffffff" d="M168.72999977111817,144.75 L178.94999977111817,144.75 A3.54,3.5300000000000002 3.5 0 1 182.45999977111816,148.71 L182.33999977111816,149.73 A3.13,3.13 0 0 1 179.22999977111817,152.49 L159.72999977111817,152.5 A4.07,4.06 -7.6 0 1 155.78999977111818,149.49 L150.89999977111816,131.24 A3.93,3.92 -16.4 0 1 153.49999977111815,126.49000000000001 L154.23999977111816,126.25 A3,2.99 73.6 0 1 158.03999977111818,128.32 L161.17999977111816,140.06 A0.2900000000000001,0.2900000000000001 0 0 0 161.68999977111815,140.16 C184.33999977111816,111.14 176.43999977111815,69.45 144.97999977111817,50.08 C123.98999977111816,37.15 96.05999977111816,38.63 76.36999977111816,53.769999999999996 C29.429999771118162,89.9 55.00999977111816,163.55 114.25999977111817,164.07 A2.81,2.81 0 0 1 117.03999977111818,167.02 L116.99999977111815,167.93 Q116.80999977111816,171.58 113.15999977111817,171.49 Q86.53999977111816,170.81 67.58999977111816,154.03 C35.049999771118166,125.21000000000001 37.10999977111816,73.93 71.69999977111816,47.61 C106.65999977111817,21 156.35999977111817,33.52 175.34999977111818,72.59 C186.90999977111815,96.36 183.86999977111816,122.58000000000001 168.43999977111815,144.17 Q168.02999977111816,144.75 168.72999977111817,144.75 z" id="svg_22" class=""/><path fill="#111111" d="M449.32999977111814,139.96 C449.3499997711182,141.67 449.42999977111816,143.7 448.75999977111815,145.28 Q446.24999977111815,151.18 439.7199997711182,149.78 C435.62999977111815,148.9 434.2299997711182,145.12 434.2299997711182,141.03 Q434.2299997711182,104.26 434.2099997711182,67.48 Q434.2099997711182,63.19 435.26999977111814,61.2 C438.86999977111816,54.47 449.31999977111815,57.510000000000005 449.31999977111815,65.25 Q449.31999977111815,79.45 449.32999977111814,93.13 Q449.32999977111814,94.22 449.9799997711182,93.35 Q457.5899997711182,83.3 468.87999977111815,82.17 C481.88999977111814,80.87 494.17999977111816,88.33 499.3099997711182,100.49 Q504.63999977111814,113.13 501.00999977111815,127.49000000000001 C495.0399997711182,151.06 466.07999977111814,159.25 449.8499997711182,139.77 Q449.31999977111815,139.13 449.32999977111814,139.96 zM468.3388997711182,137.7079 A21.41,19.21 89.2 0 0 487.2480997711182,116.0318 A21.41,19.21 89.2 0 0 467.7410997711182,94.8921 A21.41,19.21 89.2 0 0 448.8318997711182,116.56819999999999 A21.41,19.21 89.2 0 0 468.3388997711182,137.7079 z" id="svg_23" class=""/><rect fill="#ffffff" x="109.62999677658081" y="60.549997329711914" transform="rotate(0.10000000149011612 113.43999481201048,77.6999969482453) " width="7.619999885559082" height="34.29999923706055" rx="3.7100000381469727" id="svg_24" class=""/><rect fill="#111111" x="787.320029258728" y="61.30999755859375" transform="rotate(-0.10000000149011612 795.0200195312547,105.59999847413253) " width="15.399999618530273" height="88.58000183105469" rx="7.550000190734863" id="svg_25" class=""/><path fill="#3a86ffff" d="M285.5299997711182,119.22999999999999 Q285.3399997711182,134.52 285.48999977111816,141.01 Q285.5899997711182,145.69 282.60999977111817,148.12 C278.82999977111814,151.2 272.9799997711182,150.17 270.8999997711182,145.58 Q270.04999977111817,143.69 270.04999977111817,139.59 Q270.05999977111816,104.67 270.04999977111817,69.76 Q270.0399997711182,62.11 278.24999977111815,61.980000000000004 Q294.23999977111816,61.72 310.23999977111816,61.81 C322.82999977111814,61.879999999999995 335.29999977111817,66.96 339.74999977111815,79.2 C345.42999977111816,94.77 338.5999997711182,110.33 322.11999977111816,115.61000000000001 A0.3200000000000001,0.3200000000000001 0 0 0 321.9699997711182,116.11000000000001 Q330.73999977111816,127.12 339.42999977111816,138.32 C344.37999977111815,144.7 336.80999977111816,152.24 330.01999977111814,149.31 Q327.99999977111815,148.44 325.63999977111814,145.41 Q315.31999977111815,132.23 305.06999977111815,119.05000000000001 Q304.8399997711182,118.75 304.44999977111814,118.75 L286.01999977111814,118.75 Q285.5399997711182,118.75 285.5299997711182,119.22999999999999 zM285.42999977111816,76.07 L285.5299997711182,104.93 A0.28,0.28 0 0 0 285.80999977111816,105.21 L309.44999977111814,105.13 A16.52,13.81 -0.2 0 0 325.91999977111817,91.26 L325.91999977111817,89.46 A16.52,13.81 -0.2 0 0 309.3499997711182,75.71 L285.7099997711182,75.79 A0.28,0.28 0 0 0 285.42999977111816,76.07 z" id="svg_26" class=""/><path fill="#111111" d="M863.0899997711182,76.6 Q863.0399997711181,109.55 863.0799997711182,142.5 C863.0899997711182,152.34 847.2599997711181,152.47 847.3499997711182,141.25 Q847.5899997711182,108.91 847.5899997711182,76.57 Q847.5899997711182,76.03 847.0399997711181,76.02 Q837.8399997711182,75.95 828.7799997711181,76.01 Q824.0599997711182,76.04 821.9799997711182,74.69 C817.9199997711181,72.07 818.4499997711182,64.32 823.2199997711182,62.400000000000006 Q824.8099997711182,61.760000000000005 828.8299997711182,61.760000000000005 Q855.1399997711181,61.75 881.4499997711182,61.739999999999995 Q886.3399997711182,61.739999999999995 888.2999997711181,62.95 C892.3299997711182,65.43 892.1099997711182,73.52 887.2399997711182,75.44 Q885.7899997711181,76.01 881.6399997711181,75.99 Q872.6599997711181,75.93 863.6499997711181,76.04 Q863.0899997711182,76.04 863.0899997711182,76.6 z" id="svg_27" class=""/><path fill="#111111" d="M685.4699997711182,82.72 C685.4799997711182,78.52 684.5499997711181,71.11 686.7899997711181,67.67 C689.5599997711182,63.43000000000001 697.1599997711181,63.459999999999994 699.6199997711182,68.29 C701.3299997711182,71.63 700.5999997711182,78.8 700.5499997711181,82.7 Q700.5399997711181,83.23 701.0699997711182,83.23 C704.9299997711182,83.28 711.5599997711182,82.53 714.9199997711181,83.8 C718.9599997711182,85.34 720.2499997711182,90.24 717.6899997711182,93.63 C714.6799997711182,97.62 706.2999997711181,96.14 701.0999997711182,96.31 Q700.5799997711182,96.33 700.5799997711182,96.85 Q700.5399997711181,112.21 700.5799997711182,127.49000000000001 C700.5899997711182,130.66 700.7399997711182,133.5 703.2799997711181,135.58 C706.6399997711181,138.31 710.4299997711182,135.93 714.0699997711182,136.75 Q718.1399997711181,137.67 718.7299997711182,141.75 C720.1499997711181,151.45 704.0499997711181,150.9 698.3699997711182,149.76 C686.3999997711181,147.34 685.5599997711182,138.15 685.5099997711181,126.91999999999999 Q685.4399997711182,111.88 685.4899997711182,96.83 Q685.4999997711182,96.33 684.9899997711182,96.3 C680.8899997711181,96.08 677.7399997711182,95.69 676.5899997711182,91.08 C675.2199997711182,85.6 680.0999997711182,83.17 684.9099997711181,83.26 Q685.4699997711182,83.28 685.4699997711182,82.72 z" id="svg_28" class=""/><path fill="#ffffff" d="M129.55999977111816,118.75 C139.36999977111816,108.64 138.61999977111816,93.61 127.52999977111816,84.44 Q125.46999977111815,82.73 125.10999977111817,81.51 C124.41999977111817,79.18 126.77999977111816,76.21 129.42999977111816,76.82 Q131.06999977111818,77.2 133.42999977111816,79.31 C155.48999977111816,99.05 140.48999977111816,135.27 111.00999977111816,133.12 C92.57999977111817,131.78 79.87999977111816,114 83.45999977111816,96.31 Q85.70999977111816,85.24 95.70999977111816,77.64 Q98.54999977111817,75.49 100.86999977111816,78.2 L101.44999977111816,78.89 A2.79,2.7800000000000002 -40 0 1 101.09999977111816,82.86 Q91.51999977111817,90.69 90.57999977111817,99.54 C89.58999977111816,108.91 93.90999977111817,117.68 101.86999977111816,122.53999999999999 C110.61999977111816,127.88 122.59999977111818,125.93 129.55999977111816,118.75 z" id="svg_30" class=""/><path fill="#3a86ffff" d="M370.3999997711182,122.31 C373.2299997711182,139.7 392.16999977111817,142.68 404.42999977111816,133.11 Q406.74999977111815,131.29 408.36999977111816,131.18 C412.35999977111817,130.91 415.56999977111815,135.19 414.51999977111814,138.92 Q413.9699997711182,140.9 411.5899997711182,142.97 C402.76999977111814,150.64 390.6599997711182,152.19 379.49999977111815,149.45 C345.2199997711182,141.04 347.57999977111814,87.05 382.9699997711182,82.41 C402.06999977111815,79.91 416.81999977111815,92.81 418.51999977111814,111.6 C419.0299997711182,117.25999999999999 417.3499997711182,121.80000000000001 410.9799997711182,121.77000000000001 Q390.92999977111816,121.66999999999999 370.8399997711182,121.78999999999999 Q370.31999977111815,121.78999999999999 370.3999997711182,122.31 zM370.74999977111815,111.75 L403.42999977111816,111.75 A0.27,0.27 0 0 0 403.69999977111814,111.48 L403.69999977111814,111.09 A16.74,16.61 90 0 0 387.0899997711182,94.35 L387.0899997711182,94.35 A16.74,16.61 90 0 0 370.4799997711182,111.09 L370.4799997711182,111.48 A0.27,0.27 0 0 0 370.74999977111815,111.75 z" id="svg_31" class=""/><path fill="#111111" d="M584.7175997711182,113.0686 A35.28,34.52 -5.5 0 1 552.9085997711181,150.8111 A35.28,34.52 -5.5 0 1 514.4823997711181,119.8314 A35.28,34.52 -5.5 0 1 546.2913997711181,82.0889 A35.28,34.52 -5.5 0 1 584.7175997711182,113.0686 zM551.8724997711182,137.6353 A21.32,20.18 83.8 0 0 569.6319997711182,114.26060000000001 A21.32,20.18 83.8 0 0 547.2674997711182,95.2447 A21.32,20.18 83.8 0 0 529.5079997711182,118.61940000000001 A21.32,20.18 83.8 0 0 551.8724997711182,137.6353 z" id="svg_32" class=""/><path fill="#111111" d="M667.0005997711181,115.22059999999999 A35.27,34.47 -1.9 0 1 632.8928997711182,150.841 A35.27,34.47 -1.9 0 1 596.4993997711182,117.55940000000001 A35.27,34.47 -1.9 0 1 630.6070997711182,81.939 A35.27,34.47 -1.9 0 1 667.0005997711181,115.22059999999999 zM633.9655997711181,137.6493 A21.32,20.17 83.9 0 0 651.7557997711182,114.3067 A21.32,20.17 83.9 0 0 629.4343997711181,95.2507 A21.32,20.17 83.9 0 0 611.6441997711181,118.5933 A21.32,20.17 83.9 0 0 633.9655997711181,137.6493 z" id="svg_33" class=""/><rect fill="#111111" x="730.6700019836426" y="103.53000354766846" transform="rotate(0.10000000149011612 749.6799926757795,110.98000335693027) " width="38.02000045776367" height="14.899999618530273" rx="7.150000095367432" id="svg_38" class=""/></g></svg>