<svg xmlns="http://www.w3.org/2000/svg" xmlns:xlink="http://www.w3.org/1999/xlink" width="424" zoomAndPan="magnify" viewBox="0 0 318 75.749997" height="101" preserveAspectRatio="xMidYMid meet" version="1.0"><defs><clipPath id="716d7dab1d"><path d="M 0.523438 0 L 75.605469 0 L 75.605469 75.085938 L 0.523438 75.085938 Z M 0.523438 0 " clip-rule="nonzero"/></clipPath><clipPath id="3170685811"><path d="M 17.714844 0 L 58.414062 0 C 62.972656 0 67.347656 1.8125 70.570312 5.035156 C 73.796875 8.261719 75.605469 12.632812 75.605469 17.191406 L 75.605469 57.890625 C 75.605469 62.449219 73.796875 66.824219 70.570312 70.046875 C 67.347656 73.273438 62.972656 75.085938 58.414062 75.085938 L 17.714844 75.085938 C 13.15625 75.085938 8.78125 73.273438 5.558594 70.046875 C 2.335938 66.824219 0.523438 62.449219 0.523438 57.890625 L 0.523438 17.191406 C 0.523438 12.632812 2.335938 8.261719 5.558594 5.035156 C 8.78125 1.8125 13.15625 0 17.714844 0 Z M 17.714844 0 " clip-rule="nonzero"/></clipPath><clipPath id="e8dbb6c32d"><path d="M 12 11 L 69 11 L 69 64 L 12 64 Z M 12 11 " clip-rule="nonzero"/></clipPath><clipPath id="0e8fa35029"><path d="M 46.746094 2.046875 L 73.542969 46.199219 L 29.390625 72.996094 L 2.59375 28.84375 Z M 46.746094 2.046875 " clip-rule="nonzero"/></clipPath><clipPath id="80e367cc6d"><path d="M 46.746094 2.046875 L 73.542969 46.199219 L 29.390625 72.996094 L 2.59375 28.84375 Z M 46.746094 2.046875 " clip-rule="nonzero"/></clipPath><clipPath id="4d1929ea78"><path d="M 27.394531 29 L 48.992188 29 L 48.992188 49.234375 L 27.394531 49.234375 Z M 27.394531 29 " clip-rule="nonzero"/></clipPath><clipPath id="8b6411e9df"><path d="M 36 25.757812 L 40 25.757812 L 40 34 L 36 34 Z M 36 25.757812 " clip-rule="nonzero"/></clipPath><clipPath id="d246f9c2d4"><path d="M 290 21 L 316.953125 21 L 316.953125 55 L 290 55 Z M 290 21 " clip-rule="nonzero"/></clipPath></defs><g clip-path="url(#716d7dab1d)"><g clip-path="url(#3170685811)"><path fill="#000000" d="M 0.523438 0 L 75.605469 0 L 75.605469 75.085938 L 0.523438 75.085938 Z M 0.523438 0 " fill-opacity="1" fill-rule="nonzero"/></g></g><g clip-path="url(#e8dbb6c32d)"><g clip-path="url(#0e8fa35029)"><g clip-path="url(#80e367cc6d)"><path fill="#ffffff" d="M 48.566406 59.90625 C 48.457031 59.5625 48.203125 59.308594 47.839844 59.21875 C 47.554688 59.085938 47.164062 59.117188 46.820312 59.226562 C 36.207031 63.515625 24.242188 59.503906 18.289062 49.695312 C 11.65625 38.765625 15.15625 24.445312 26.089844 17.8125 C 37.019531 11.175781 51.339844 14.679688 57.972656 25.609375 C 62.335938 32.796875 62.429688 42.066406 58.230469 49.328125 L 53.59375 41.691406 C 53.230469 41.089844 52.390625 40.886719 51.789062 41.25 C 51.191406 41.613281 50.984375 42.453125 51.347656 43.054688 L 56.300781 51.214844 C 57.121094 52.5625 58.925781 53.003906 60.273438 52.1875 L 68.359375 47.277344 C 68.957031 46.914062 69.164062 46.074219 68.800781 45.472656 C 68.4375 44.875 67.59375 44.667969 66.996094 45.03125 L 61.605469 48.304688 C 65.09375 40.550781 64.582031 31.433594 60.21875 24.246094 C 52.8125 12.042969 36.929688 8.15625 24.726562 15.566406 C 12.519531 22.972656 8.636719 38.855469 16.042969 51.058594 C 22.632812 61.917969 36.011719 66.398438 47.835938 61.578125 C 48.480469 61.289062 48.777344 60.597656 48.566406 59.90625 Z M 48.566406 59.90625 " fill-opacity="1" fill-rule="nonzero"/></g></g></g><g clip-path="url(#4d1929ea78)"><path fill="#ffffff" d="M 38.0625 49.320312 C 43.890625 49.320312 48.632812 44.582031 48.632812 38.753906 C 48.632812 34.722656 46.289062 30.992188 42.667969 29.246094 C 42.101562 28.972656 41.417969 29.210938 41.144531 29.78125 C 40.871094 30.347656 41.109375 31.027344 41.679688 31.300781 C 44.515625 32.671875 46.351562 35.59375 46.351562 38.753906 C 46.351562 43.324219 42.632812 47.042969 38.0625 47.042969 C 33.492188 47.042969 29.773438 43.324219 29.773438 38.753906 C 29.773438 35.59375 31.605469 32.671875 34.445312 31.300781 C 35.011719 31.027344 35.25 30.347656 34.976562 29.78125 C 34.703125 29.210938 34.023438 28.972656 33.457031 29.246094 C 29.832031 30.992188 27.492188 34.726562 27.492188 38.753906 C 27.492188 44.582031 32.234375 49.320312 38.0625 49.320312 Z M 38.0625 49.320312 " fill-opacity="1" fill-rule="nonzero"/></g><g clip-path="url(#8b6411e9df)"><path fill="#ffffff" d="M 38.0625 33.832031 C 38.691406 33.832031 39.203125 33.320312 39.203125 32.691406 L 39.203125 26.898438 C 39.203125 26.269531 38.691406 25.757812 38.0625 25.757812 C 37.433594 25.757812 36.921875 26.269531 36.921875 26.898438 L 36.921875 32.691406 C 36.921875 33.320312 37.433594 33.832031 38.0625 33.832031 Z M 38.0625 33.832031 " fill-opacity="1" fill-rule="nonzero"/></g><path fill="#111111" d="M 153.378906 50.578125 C 153.386719 51.207031 153.417969 51.957031 153.167969 52.542969 C 152.550781 53.996094 151.4375 54.546875 149.828125 54.203125 C 148.316406 53.878906 147.800781 52.484375 147.800781 50.972656 C 147.800781 41.921875 147.796875 32.867188 147.792969 23.816406 C 147.792969 22.757812 147.925781 21.984375 148.183594 21.496094 C 149.515625 19.011719 153.375 20.132812 153.375 22.992188 C 153.375 26.488281 153.378906 29.917969 153.378906 33.285156 C 153.378906 33.554688 153.460938 33.582031 153.621094 33.367188 C 155.496094 30.894531 157.824219 29.515625 160.605469 29.238281 C 165.410156 28.757812 169.953125 31.511719 171.847656 36.003906 C 173.160156 39.113281 173.371094 42.4375 172.476562 45.972656 C 170.269531 54.675781 159.570312 57.699219 153.574219 50.507812 C 153.441406 50.351562 153.378906 50.375 153.378906 50.578125 Z M 160.40625 49.746094 C 160.871094 49.738281 161.332031 49.683594 161.785156 49.574219 C 162.242188 49.46875 162.683594 49.3125 163.113281 49.105469 C 163.539062 48.902344 163.945312 48.652344 164.328125 48.359375 C 164.710938 48.066406 165.066406 47.730469 165.390625 47.359375 C 165.714844 46.988281 166.003906 46.585938 166.257812 46.152344 C 166.511719 45.714844 166.722656 45.257812 166.894531 44.773438 C 167.066406 44.292969 167.191406 43.796875 167.277344 43.285156 C 167.359375 42.777344 167.398438 42.261719 167.390625 41.742188 C 167.382812 41.222656 167.332031 40.710938 167.234375 40.203125 C 167.136719 39.695312 166.996094 39.203125 166.808594 38.726562 C 166.625 38.246094 166.398438 37.796875 166.132812 37.367188 C 165.871094 36.9375 165.570312 36.542969 165.234375 36.183594 C 164.898438 35.820312 164.535156 35.496094 164.144531 35.214844 C 163.753906 34.929688 163.339844 34.691406 162.90625 34.5 C 162.476562 34.308594 162.027344 34.164062 161.570312 34.070312 C 161.113281 33.972656 160.648438 33.929688 160.183594 33.9375 C 159.71875 33.941406 159.257812 34 158.800781 34.109375 C 158.34375 34.214844 157.902344 34.371094 157.476562 34.578125 C 157.046875 34.78125 156.640625 35.03125 156.257812 35.324219 C 155.875 35.617188 155.523438 35.949219 155.195312 36.320312 C 154.871094 36.695312 154.585938 37.097656 154.332031 37.53125 C 154.078125 37.96875 153.867188 38.425781 153.695312 38.90625 C 153.523438 39.390625 153.394531 39.886719 153.3125 40.394531 C 153.226562 40.90625 153.1875 41.421875 153.195312 41.941406 C 153.203125 42.460938 153.257812 42.972656 153.355469 43.480469 C 153.453125 43.988281 153.59375 44.480469 153.777344 44.957031 C 153.964844 45.433594 154.1875 45.886719 154.453125 46.316406 C 154.71875 46.742188 155.019531 47.136719 155.351562 47.5 C 155.6875 47.863281 156.050781 48.1875 156.441406 48.46875 C 156.835938 48.75 157.246094 48.988281 157.679688 49.183594 C 158.113281 49.375 158.558594 49.519531 159.019531 49.613281 C 159.476562 49.707031 159.9375 49.753906 160.40625 49.746094 Z M 160.40625 49.746094 " fill-opacity="1" fill-rule="nonzero"/><path fill="#111111" d="M 281.035156 21.535156 L 281.144531 21.535156 C 281.515625 21.535156 281.871094 21.605469 282.210938 21.746094 C 282.554688 21.886719 282.855469 22.089844 283.117188 22.351562 C 283.378906 22.609375 283.582031 22.910156 283.726562 23.253906 C 283.867188 23.59375 283.9375 23.949219 283.9375 24.320312 L 283.988281 51.453125 C 283.988281 51.820312 283.917969 52.175781 283.777344 52.519531 C 283.636719 52.859375 283.433594 53.164062 283.171875 53.425781 C 282.910156 53.6875 282.609375 53.886719 282.269531 54.03125 C 281.925781 54.171875 281.570312 54.242188 281.203125 54.242188 L 281.089844 54.242188 C 280.722656 54.246094 280.363281 54.175781 280.023438 54.035156 C 279.679688 53.894531 279.378906 53.691406 279.117188 53.429688 C 278.855469 53.171875 278.652344 52.867188 278.511719 52.527344 C 278.367188 52.1875 278.296875 51.832031 278.296875 51.460938 L 278.25 24.328125 C 278.25 23.960938 278.316406 23.605469 278.460938 23.261719 C 278.601562 22.921875 278.800781 22.617188 279.0625 22.355469 C 279.324219 22.09375 279.625 21.894531 279.964844 21.75 C 280.308594 21.609375 280.664062 21.539062 281.035156 21.535156 Z M 281.035156 21.535156 " fill-opacity="1" fill-rule="nonzero"/><path fill="#3a86ff" d="M 92.855469 42.921875 C 92.808594 46.6875 92.800781 49.367188 92.839844 50.964844 C 92.863281 52.117188 92.507812 52.992188 91.773438 53.589844 C 90.378906 54.726562 88.214844 54.347656 87.449219 52.652344 C 87.238281 52.1875 87.132812 51.449219 87.132812 50.441406 C 87.136719 41.84375 87.136719 33.25 87.132812 24.65625 C 87.132812 22.773438 88.140625 21.816406 90.164062 21.785156 C 94.101562 21.71875 98.042969 21.699219 101.984375 21.722656 C 106.636719 21.746094 111.246094 23.621094 112.890625 28.140625 C 114.988281 33.890625 112.464844 39.636719 106.375 41.585938 C 106.335938 41.597656 106.3125 41.625 106.300781 41.664062 C 106.289062 41.703125 106.292969 41.738281 106.320312 41.769531 C 108.480469 44.480469 110.628906 47.214844 112.769531 49.972656 C 114.601562 52.328125 111.800781 55.113281 109.292969 54.03125 C 108.796875 53.816406 108.257812 53.335938 107.675781 52.589844 C 105.132812 49.34375 102.597656 46.101562 100.074219 42.855469 C 100.019531 42.78125 99.941406 42.746094 99.84375 42.746094 L 93.035156 42.746094 C 92.917969 42.746094 92.855469 42.804688 92.855469 42.921875 Z M 92.816406 26.988281 L 92.855469 37.644531 C 92.855469 37.710938 92.886719 37.746094 92.957031 37.746094 L 101.691406 37.71875 C 102.09375 37.714844 102.492188 37.679688 102.882812 37.613281 C 103.277344 37.546875 103.65625 37.449219 104.027344 37.320312 C 104.398438 37.191406 104.75 37.03125 105.082031 36.84375 C 105.414062 36.65625 105.722656 36.445312 106.003906 36.207031 C 106.285156 35.96875 106.539062 35.710938 106.761719 35.433594 C 106.980469 35.152344 107.167969 34.859375 107.320312 34.546875 C 107.472656 34.238281 107.589844 33.917969 107.664062 33.589844 C 107.742188 33.261719 107.78125 32.929688 107.777344 32.59375 L 107.777344 31.929688 C 107.777344 31.597656 107.738281 31.265625 107.65625 30.9375 C 107.578125 30.609375 107.460938 30.289062 107.308594 29.980469 C 107.152344 29.671875 106.964844 29.378906 106.738281 29.101562 C 106.515625 28.824219 106.261719 28.566406 105.976562 28.332031 C 105.691406 28.097656 105.382812 27.886719 105.050781 27.699219 C 104.714844 27.515625 104.363281 27.359375 103.992188 27.234375 C 103.621094 27.105469 103.242188 27.011719 102.847656 26.949219 C 102.453125 26.882812 102.054688 26.851562 101.65625 26.855469 L 92.921875 26.882812 C 92.851562 26.882812 92.816406 26.917969 92.816406 26.988281 Z M 92.816406 26.988281 " fill-opacity="1" fill-rule="nonzero"/><g clip-path="url(#d246f9c2d4)"><path fill="#111111" d="M 306.269531 27.183594 C 306.257812 35.292969 306.257812 43.40625 306.265625 51.515625 C 306.269531 55.148438 300.421875 55.195312 300.453125 51.054688 C 300.511719 43.09375 300.542969 35.132812 300.542969 27.171875 C 300.542969 27.039062 300.476562 26.972656 300.339844 26.96875 C 298.074219 26.949219 295.824219 26.949219 293.59375 26.964844 C 292.429688 26.972656 291.59375 26.808594 291.078125 26.476562 C 289.578125 25.507812 289.777344 22.648438 291.539062 21.9375 C 291.929688 21.78125 292.621094 21.703125 293.609375 21.703125 C 300.09375 21.699219 306.574219 21.699219 313.054688 21.695312 C 314.257812 21.695312 315.101562 21.84375 315.585938 22.140625 C 317.074219 23.058594 316.992188 26.046875 315.195312 26.753906 C 314.835938 26.894531 314.148438 26.960938 313.125 26.957031 C 310.914062 26.941406 308.695312 26.949219 306.476562 26.976562 C 306.339844 26.976562 306.269531 27.042969 306.269531 27.183594 Z M 306.269531 27.183594 " fill-opacity="1" fill-rule="nonzero"/></g><path fill="#111111" d="M 240.636719 29.441406 C 240.640625 27.890625 240.296875 25.15625 241.125 23.886719 C 242.148438 22.320312 244.957031 22.332031 245.867188 24.113281 C 246.496094 25.347656 246.226562 27.996094 246.210938 29.433594 C 246.207031 29.566406 246.269531 29.628906 246.402344 29.628906 C 247.828125 29.648438 250.277344 29.371094 251.519531 29.839844 C 253.011719 30.410156 253.488281 32.21875 252.542969 33.46875 C 251.429688 34.945312 248.335938 34.398438 246.414062 34.460938 C 246.285156 34.464844 246.222656 34.53125 246.222656 34.660156 C 246.210938 38.441406 246.210938 42.210938 246.222656 45.972656 C 246.222656 47.144531 246.28125 48.191406 247.21875 48.960938 C 248.460938 49.96875 249.859375 49.089844 251.207031 49.390625 C 252.207031 49.617188 252.78125 50.234375 252.925781 51.238281 C 253.453125 54.820312 247.503906 54.617188 245.402344 54.195312 C 240.980469 53.300781 240.671875 49.910156 240.652344 45.761719 C 240.636719 42.058594 240.632812 38.355469 240.644531 34.652344 C 240.648438 34.527344 240.585938 34.464844 240.460938 34.457031 C 238.945312 34.375 237.78125 34.230469 237.355469 32.527344 C 236.851562 30.503906 238.652344 29.609375 240.429688 29.640625 C 240.570312 29.644531 240.636719 29.578125 240.636719 29.441406 Z M 240.636719 29.441406 " fill-opacity="1" fill-rule="nonzero"/><path fill="#3a86ff" d="M 124.214844 44.058594 C 125.261719 50.480469 132.257812 51.582031 136.789062 48.046875 C 137.359375 47.601562 137.847656 47.363281 138.246094 47.335938 C 139.71875 47.234375 140.90625 48.816406 140.519531 50.195312 C 140.382812 50.679688 140.019531 51.179688 139.433594 51.6875 C 136.175781 54.519531 131.699219 55.09375 127.578125 54.082031 C 114.910156 50.976562 115.78125 31.039062 128.859375 29.328125 C 135.917969 28.40625 141.367188 33.167969 141.996094 40.105469 C 142.183594 42.195312 141.5625 43.871094 139.210938 43.859375 C 134.269531 43.835938 129.328125 43.839844 124.378906 43.867188 C 124.25 43.867188 124.195312 43.933594 124.214844 44.058594 Z M 124.34375 40.160156 L 136.417969 40.160156 C 136.484375 40.160156 136.519531 40.128906 136.519531 40.0625 L 136.519531 39.917969 C 136.519531 39.511719 136.480469 39.109375 136.402344 38.710938 C 136.324219 38.3125 136.207031 37.925781 136.050781 37.550781 C 135.898438 37.175781 135.710938 36.820312 135.484375 36.484375 C 135.261719 36.144531 135.007812 35.832031 134.722656 35.546875 C 134.4375 35.261719 134.125 35.003906 133.792969 34.777344 C 133.457031 34.550781 133.101562 34.363281 132.730469 34.207031 C 132.359375 34.050781 131.972656 33.933594 131.578125 33.855469 C 131.183594 33.777344 130.785156 33.738281 130.382812 33.738281 C 129.980469 33.738281 129.578125 33.777344 129.183594 33.855469 C 128.789062 33.933594 128.40625 34.050781 128.03125 34.207031 C 127.660156 34.363281 127.308594 34.550781 126.972656 34.777344 C 126.636719 35.003906 126.328125 35.261719 126.042969 35.546875 C 125.757812 35.832031 125.503906 36.144531 125.277344 36.484375 C 125.054688 36.820312 124.867188 37.175781 124.710938 37.550781 C 124.558594 37.925781 124.441406 38.3125 124.363281 38.710938 C 124.285156 39.109375 124.246094 39.511719 124.246094 39.917969 L 124.246094 40.0625 C 124.246094 40.128906 124.277344 40.160156 124.34375 40.160156 Z M 124.34375 40.160156 " fill-opacity="1" fill-rule="nonzero"/><path fill="#111111" d="M 203.40625 40.648438 C 203.488281 41.480469 203.484375 42.3125 203.398438 43.148438 C 203.308594 43.980469 203.140625 44.796875 202.886719 45.597656 C 202.636719 46.398438 202.308594 47.167969 201.898438 47.90625 C 201.492188 48.644531 201.015625 49.339844 200.472656 49.984375 C 199.925781 50.632812 199.320312 51.222656 198.65625 51.753906 C 197.992188 52.285156 197.285156 52.746094 196.527344 53.140625 C 195.769531 53.535156 194.980469 53.855469 194.164062 54.097656 C 193.34375 54.339844 192.507812 54.503906 191.652344 54.585938 C 190.800781 54.667969 189.949219 54.667969 189.097656 54.582031 C 188.246094 54.5 187.414062 54.339844 186.59375 54.097656 C 185.777344 53.851562 184.992188 53.535156 184.238281 53.140625 C 183.484375 52.746094 182.78125 52.28125 182.121094 51.75 C 181.460938 51.21875 180.863281 50.628906 180.320312 49.984375 C 179.78125 49.335938 179.3125 48.644531 178.910156 47.90625 C 178.511719 47.167969 178.1875 46.398438 177.941406 45.597656 C 177.699219 44.796875 177.535156 43.976562 177.457031 43.144531 C 177.375 42.3125 177.378906 41.480469 177.464844 40.644531 C 177.554688 39.8125 177.722656 38.996094 177.976562 38.195312 C 178.226562 37.394531 178.554688 36.625 178.960938 35.886719 C 179.371094 35.148438 179.84375 34.457031 180.390625 33.808594 C 180.9375 33.160156 181.542969 32.570312 182.207031 32.042969 C 182.871094 31.511719 183.578125 31.046875 184.335938 30.652344 C 185.09375 30.257812 185.882812 29.9375 186.699219 29.695312 C 187.519531 29.453125 188.355469 29.292969 189.210938 29.210938 C 190.0625 29.128906 190.914062 29.128906 191.765625 29.210938 C 192.617188 29.292969 193.449219 29.453125 194.269531 29.695312 C 195.085938 29.941406 195.871094 30.257812 196.625 30.652344 C 197.378906 31.046875 198.082031 31.511719 198.742188 32.042969 C 199.402344 32.574219 200 33.164062 200.542969 33.808594 C 201.082031 34.457031 201.550781 35.148438 201.953125 35.886719 C 202.351562 36.625 202.675781 37.394531 202.921875 38.195312 C 203.164062 38.996094 203.328125 39.816406 203.40625 40.648438 Z M 191.269531 49.71875 C 191.757812 49.667969 192.234375 49.5625 192.703125 49.410156 C 193.167969 49.257812 193.613281 49.0625 194.042969 48.816406 C 194.472656 48.570312 194.871094 48.28125 195.246094 47.953125 C 195.621094 47.625 195.960938 47.257812 196.265625 46.859375 C 196.570312 46.457031 196.832031 46.027344 197.058594 45.570312 C 197.28125 45.113281 197.460938 44.640625 197.59375 44.144531 C 197.730469 43.648438 197.816406 43.144531 197.855469 42.628906 C 197.898438 42.117188 197.890625 41.601562 197.832031 41.089844 C 197.777344 40.574219 197.675781 40.070312 197.523438 39.578125 C 197.375 39.082031 197.183594 38.609375 196.945312 38.15625 C 196.707031 37.699219 196.429688 37.273438 196.113281 36.875 C 195.792969 36.476562 195.445312 36.117188 195.0625 35.789062 C 194.675781 35.464844 194.265625 35.179688 193.832031 34.9375 C 193.394531 34.695312 192.941406 34.503906 192.472656 34.355469 C 192 34.207031 191.519531 34.109375 191.03125 34.058594 C 190.542969 34.011719 190.054688 34.015625 189.570312 34.066406 C 189.082031 34.121094 188.605469 34.222656 188.140625 34.375 C 187.671875 34.527344 187.226562 34.726562 186.796875 34.96875 C 186.371094 35.214844 185.96875 35.503906 185.59375 35.832031 C 185.222656 36.164062 184.882812 36.527344 184.578125 36.929688 C 184.273438 37.328125 184.007812 37.757812 183.785156 38.214844 C 183.558594 38.671875 183.378906 39.148438 183.246094 39.640625 C 183.113281 40.136719 183.023438 40.640625 182.984375 41.15625 C 182.945312 41.667969 182.953125 42.183594 183.007812 42.699219 C 183.0625 43.210938 183.167969 43.714844 183.316406 44.210938 C 183.464844 44.703125 183.660156 45.175781 183.898438 45.632812 C 184.136719 46.085938 184.414062 46.511719 184.730469 46.910156 C 185.046875 47.308594 185.398438 47.667969 185.78125 47.996094 C 186.164062 48.320312 186.574219 48.605469 187.007812 48.847656 C 187.445312 49.089844 187.898438 49.285156 188.371094 49.429688 C 188.839844 49.578125 189.320312 49.675781 189.808594 49.726562 C 190.296875 49.773438 190.785156 49.773438 191.269531 49.71875 Z M 191.269531 49.71875 " fill-opacity="1" fill-rule="nonzero"/><path fill="#111111" d="M 233.8125 41.441406 C 233.839844 42.277344 233.785156 43.109375 233.644531 43.933594 C 233.503906 44.757812 233.285156 45.5625 232.984375 46.34375 C 232.679688 47.125 232.304688 47.871094 231.851562 48.582031 C 231.398438 49.292969 230.882812 49.953125 230.296875 50.5625 C 229.710938 51.175781 229.070312 51.722656 228.375 52.210938 C 227.679688 52.699219 226.941406 53.117188 226.160156 53.460938 C 225.382812 53.808594 224.574219 54.074219 223.742188 54.265625 C 222.910156 54.457031 222.066406 54.566406 221.210938 54.59375 C 220.355469 54.625 219.503906 54.570312 218.660156 54.433594 C 217.816406 54.300781 216.992188 54.085938 216.191406 53.792969 C 215.390625 53.5 214.628906 53.132812 213.902344 52.691406 C 213.175781 52.25 212.5 51.746094 211.875 51.175781 C 211.25 50.605469 210.691406 49.980469 210.191406 49.300781 C 209.691406 48.621094 209.269531 47.902344 208.914062 47.140625 C 208.5625 46.378906 208.289062 45.59375 208.09375 44.78125 C 207.898438 43.964844 207.789062 43.140625 207.761719 42.304688 C 207.734375 41.472656 207.789062 40.640625 207.929688 39.816406 C 208.070312 38.992188 208.289062 38.1875 208.589844 37.40625 C 208.894531 36.621094 209.269531 35.875 209.722656 35.167969 C 210.175781 34.457031 210.691406 33.796875 211.277344 33.183594 C 211.863281 32.574219 212.503906 32.023438 213.199219 31.539062 C 213.894531 31.050781 214.632812 30.632812 215.414062 30.289062 C 216.191406 29.941406 217 29.671875 217.832031 29.484375 C 218.664062 29.292969 219.507812 29.183594 220.363281 29.152344 C 221.21875 29.125 222.070312 29.179688 222.914062 29.3125 C 223.757812 29.449219 224.582031 29.664062 225.382812 29.957031 C 226.183594 30.25 226.945312 30.617188 227.671875 31.058594 C 228.398438 31.5 229.074219 32.003906 229.699219 32.574219 C 230.324219 33.144531 230.886719 33.769531 231.382812 34.449219 C 231.882812 35.128906 232.308594 35.847656 232.660156 36.609375 C 233.011719 37.367188 233.285156 38.15625 233.480469 38.96875 C 233.675781 39.78125 233.785156 40.609375 233.8125 41.441406 Z M 221.605469 49.722656 C 222.09375 49.671875 222.570312 49.570312 223.035156 49.417969 C 223.503906 49.269531 223.949219 49.070312 224.378906 48.824219 C 224.808594 48.582031 225.207031 48.292969 225.582031 47.964844 C 225.957031 47.636719 226.296875 47.273438 226.601562 46.871094 C 226.90625 46.472656 227.171875 46.042969 227.394531 45.585938 C 227.621094 45.132812 227.800781 44.65625 227.9375 44.160156 C 228.070312 43.667969 228.160156 43.160156 228.199219 42.648438 C 228.242188 42.132812 228.234375 41.621094 228.179688 41.105469 C 228.125 40.589844 228.023438 40.085938 227.875 39.59375 C 227.726562 39.097656 227.53125 38.625 227.296875 38.171875 C 227.058594 37.714844 226.78125 37.289062 226.464844 36.890625 C 226.148438 36.492188 225.800781 36.128906 225.417969 35.800781 C 225.035156 35.476562 224.625 35.191406 224.191406 34.949219 C 223.753906 34.707031 223.300781 34.511719 222.832031 34.363281 C 222.359375 34.214844 221.882812 34.113281 221.394531 34.066406 C 220.90625 34.015625 220.417969 34.015625 219.929688 34.070312 C 219.445312 34.121094 218.96875 34.222656 218.5 34.375 C 218.035156 34.523438 217.585938 34.722656 217.160156 34.96875 C 216.730469 35.210938 216.328125 35.5 215.957031 35.828125 C 215.582031 36.15625 215.242188 36.519531 214.9375 36.921875 C 214.632812 37.320312 214.367188 37.75 214.140625 38.207031 C 213.917969 38.660156 213.738281 39.136719 213.601562 39.632812 C 213.464844 40.128906 213.378906 40.632812 213.335938 41.144531 C 213.296875 41.660156 213.304688 42.175781 213.359375 42.6875 C 213.414062 43.203125 213.515625 43.707031 213.664062 44.199219 C 213.8125 44.695312 214.003906 45.167969 214.242188 45.625 C 214.480469 46.078125 214.757812 46.503906 215.070312 46.902344 C 215.386719 47.300781 215.738281 47.664062 216.121094 47.992188 C 216.503906 48.316406 216.914062 48.601562 217.347656 48.84375 C 217.78125 49.085938 218.234375 49.28125 218.707031 49.429688 C 219.175781 49.578125 219.65625 49.679688 220.144531 49.726562 C 220.632812 49.777344 221.121094 49.777344 221.605469 49.722656 Z M 221.605469 49.722656 " fill-opacity="1" fill-rule="nonzero"/><path fill="#111111" d="M 259.988281 37.117188 L 268.75 37.132812 C 269.101562 37.132812 269.4375 37.203125 269.761719 37.335938 C 270.085938 37.472656 270.371094 37.664062 270.617188 37.910156 C 270.867188 38.15625 271.054688 38.445312 271.1875 38.769531 C 271.324219 39.089844 271.390625 39.429688 271.386719 39.777344 L 271.386719 40 C 271.386719 40.351562 271.320312 40.6875 271.183594 41.011719 C 271.050781 41.332031 270.859375 41.617188 270.609375 41.867188 C 270.363281 42.113281 270.078125 42.304688 269.753906 42.4375 C 269.429688 42.570312 269.09375 42.636719 268.742188 42.636719 L 259.976562 42.621094 C 259.625 42.621094 259.289062 42.550781 258.964844 42.417969 C 258.640625 42.28125 258.355469 42.089844 258.109375 41.84375 C 257.863281 41.59375 257.671875 41.308594 257.539062 40.984375 C 257.40625 40.664062 257.339844 40.324219 257.339844 39.976562 L 257.339844 39.753906 C 257.339844 39.402344 257.40625 39.066406 257.542969 38.742188 C 257.675781 38.421875 257.867188 38.136719 258.117188 37.886719 C 258.363281 37.640625 258.652344 37.449219 258.976562 37.316406 C 259.300781 37.183594 259.636719 37.117188 259.988281 37.117188 Z M 259.988281 37.117188 " fill-opacity="1" fill-rule="nonzero"/></svg>