<?xml version="1.0" encoding="iso-8859-1"?>
<!-- Uploaded to: SVG Repo, www.svgrepo.com, Generator: SVG Repo Mixer Tools -->
<svg fill="#000000" version="1.1" id="Layer_1" xmlns="http://www.w3.org/2000/svg" xmlns:xlink="http://www.w3.org/1999/xlink" 
	 viewBox="0 0 512 512" xml:space="preserve">
<g>
	<g>
		<path d="M458.419,17.86H53.581C24.037,17.86,0,41.897,0,71.442v369.116c0,29.545,24.037,53.581,53.581,53.581h404.837
			c29.546,0,53.581-24.037,53.581-53.581V71.442C512,41.897,487.965,17.86,458.419,17.86z M476.279,440.558
			c0,9.848-8.011,17.86-17.86,17.86H53.581c-9.848,0-17.86-8.012-17.86-17.86V160.744h440.558V440.558z M476.279,125.023H35.721
			V71.442c0-9.848,8.012-17.86,17.86-17.86h404.837c9.849,0,17.86,8.012,17.86,17.86V125.023z"/>
	</g>
</g>
<g>
	<g>
		<rect x="256" y="71.442" width="202.419" height="35.721"/>
	</g>
</g>
<g>
	<g>
		<circle cx="71.442" cy="89.302" r="23.814"/>
	</g>
</g>
<g>
	<g>
		
			<rect x="138.709" y="291.731" transform="matrix(0.4062 -0.9138 0.9138 0.4062 -130.8975 417.7508)" width="234.547" height="35.721"/>
	</g>
</g>
<g>
	<g>
		<polygon points="186.598,261.205 158.705,238.889 102.151,309.581 158.705,380.274 186.598,357.958 147.895,309.581 		"/>
	</g>
</g>
<g>
	<g>
		<polygon points="353.295,238.889 325.402,261.205 364.105,309.581 325.402,357.958 353.295,380.274 409.849,309.581 		"/>
	</g>
</g>
</svg>