<?xml version="1.0" encoding="iso-8859-1"?>
<!-- Uploaded to: SVG Repo, www.svgrepo.com, Generator: SVG Repo Mixer Tools -->
<svg fill="#000000" height="800px" width="800px" version="1.1" id="Layer_1" xmlns="http://www.w3.org/2000/svg" xmlns:xlink="http://www.w3.org/1999/xlink" 
	 viewBox="0 0 512 512" xml:space="preserve">
<g>
	<g>
		<path d="M256,255.853c-5.761,0-10.431,4.67-10.431,10.431v4.67c0,5.761,4.67,10.431,10.431,10.431
			c5.761,0,10.431-4.671,10.431-10.431v-4.67C266.431,260.523,261.76,255.853,256,255.853z"/>
	</g>
</g>
<g>
	<g>
		<path d="M256,294.267c-5.761,0-10.431,4.67-10.431,10.431v101.314c0,5.761,4.67,10.431,10.431,10.431
			c5.761,0,10.431-4.67,10.431-10.431V304.698C266.431,298.937,261.76,294.267,256,294.267z"/>
	</g>
</g>
<g>
	<g>
		<path d="M256,0c-5.761,0-10.431,4.67-10.431,10.431V72.32c0,5.761,4.67,10.431,10.431,10.431c5.761,0,10.431-4.67,10.431-10.431
			V10.431C266.431,4.67,261.76,0,256,0z"/>
	</g>
</g>
<g>
	<g>
		<path d="M396.889,39.204c-4.075-4.073-10.678-4.073-14.752,0l-44.749,44.749c-4.073,4.074-4.073,10.679,0,14.752
			c2.037,2.037,4.706,3.055,7.376,3.055s5.338-1.019,7.375-3.055l44.75-44.749C400.962,49.881,400.962,43.277,396.889,39.204z"/>
	</g>
</g>
<g>
	<g>
		<path d="M174.613,83.952l-44.749-44.749c-4.075-4.073-10.678-4.073-14.752,0c-4.073,4.074-4.073,10.679,0,14.752l44.749,44.749
			c2.037,2.037,4.705,3.055,7.375,3.055c2.67,0,5.339-1.019,7.377-3.055C178.686,94.63,178.686,88.025,174.613,83.952z"/>
	</g>
</g>
<g>
	<g>
		<path d="M508.807,226.469L407.378,115.904c-0.078-0.084-0.151-0.152-0.221-0.206c-1.945-2.002-4.623-3.174-7.465-3.174H112.31
			c-0.055,0-0.096,0.019-0.149,0.022c-2.841,0.041-5.578,1.221-7.538,3.358L3.192,226.469c-3.785,4.127-3.338,10.47-0.011,14.09
			l245.12,268.068c3.996,4.286,11.095,4.704,15.396,0l245.12-268.068C512.144,236.938,512.595,230.6,508.807,226.469z
			 M403.239,142.253l74.158,80.836H371.079L403.239,142.253z M384.316,133.386l-32.101,80.688l-72.762-80.688H384.316z
			 M332.252,223.09H179.749l76.252-84.558L332.252,223.09z M232.55,133.386l-72.763,80.688l-32.1-80.688H232.55z M108.761,142.253
			l32.16,80.836H34.603L108.761,142.253z M34.551,243.951h114.496l78.503,211.067L34.551,243.951z M256,471.666l-84.695-227.715
			h169.39L256,471.666z M284.45,455.017l78.503-211.067h114.496L284.45,455.017z"/>
	</g>
</g>
</svg>