<?xml version="1.0" encoding="UTF-8" standalone="no"?>
<!DOCTYPE svg PUBLIC "-//W3C//DTD SVG 1.1//EN" "http://www.w3.org/Graphics/SVG/1.1/DTD/svg11.dtd">
<svg xmlns="http://www.w3.org/2000/svg" version="1.1" viewBox="0.00 0.00 635.00 540.00">
<path fill="#2867b2" d="
  M 536.25 496.73
  A 39.02 39.02 0.0 0 1 497.23 535.75
  L 39.77 535.75
  A 39.02 39.02 0.0 0 1 0.75 496.73
  L 0.75 39.27
  A 39.02 39.02 0.0 0 1 39.77 0.25
  L 497.23 0.25
  A 39.02 39.02 0.0 0 1 536.25 39.27
  L 536.25 496.73
  Z
  M 165.83 120.07
  A 45.89 45.89 0.0 0 0 119.94 74.18
  A 45.89 45.89 0.0 0 0 74.05 120.07
  A 45.89 45.89 0.0 0 0 119.94 165.96
  A 45.89 45.89 0.0 0 0 165.83 120.07
  Z
  M 285.50 234.20
  L 285.50 201.75
  Q 285.50 201.25 285.00 201.25
  L 210.00 201.25
  Q 209.50 201.25 209.50 201.75
  L 209.50 455.75
  Q 209.50 456.25 210.00 456.25
  L 288.21 456.25
  Q 288.77 456.25 288.77 455.69
  Q 288.71 392.51 288.78 324.27
  Q 288.79 316.20 290.05 306.99
  C 293.08 284.93 303.63 268.05 327.38 264.95
  Q 335.76 263.85 343.72 264.84
  C 370.07 268.13 376.09 291.07 377.48 313.86
  Q 377.73 317.98 377.73 321.90
  Q 377.78 388.86 377.73 455.70
  Q 377.73 456.25 378.28 456.25
  L 456.21 456.25
  Q 456.71 456.25 456.71 455.74
  Q 456.79 411.25 456.91 366.75
  Q 456.91 365.53 456.92 364.25
  Q 457.17 327.13 456.63 301.74
  Q 456.13 277.92 450.71 256.67
  Q 447.18 242.81 440.25 231.16
  C 430.03 213.98 413.96 203.29 394.64 198.49
  Q 376.83 194.06 355.44 194.85
  C 327.44 195.89 302.31 210.84 287.53 234.78
  Q 285.50 238.06 285.50 234.20
  Z
  M 159.51 201.51
  A 0.26 0.26 0.0 0 0 159.25 201.25
  L 80.51 201.25
  A 0.26 0.26 0.0 0 0 80.25 201.51
  L 80.25 455.99
  A 0.26 0.26 0.0 0 0 80.51 456.25
  L 159.25 456.25
  A 0.26 0.26 0.0 0 0 159.51 455.99
  L 159.51 201.51
  Z"
/>
<path fill="#2867b2" d="
  M 634.19 502.85
  A 36.74 36.74 0.0 0 1 597.45 539.59
  A 36.74 36.74 0.0 0 1 560.71 502.85
  A 36.74 36.74 0.0 0 1 597.45 466.11
  A 36.74 36.74 0.0 0 1 634.19 502.85
  Z
  M 629.73 502.85
  A 32.27 32.27 0.0 0 0 597.46 470.58
  A 32.27 32.27 0.0 0 0 565.19 502.85
  A 32.27 32.27 0.0 0 0 597.46 535.12
  A 32.27 32.27 0.0 0 0 629.73 502.85
  Z"
/>
<path fill="#2867b2" d="
  M 590.00 506.12
  L 590.00 522.00
  Q 590.00 522.50 589.50 522.50
  L 584.75 522.50
  Q 584.25 522.50 584.25 522.00
  L 584.25 483.54
  A 0.27 0.27 0.0 0 1 584.52 483.27
  Q 593.01 483.17 601.25 483.32
  C 605.89 483.40 610.68 485.26 612.30 489.83
  C 614.86 497.07 611.08 504.85 602.79 505.04
  A 0.23 0.23 0.0 0 0 602.60 505.40
  L 613.76 522.29
  A 0.12 0.12 0.0 0 1 613.66 522.48
  L 607.78 522.51
  Q 607.57 522.51 607.45 522.33
  L 597.00 505.93
  A 0.96 0.95 -16.3 0 0 596.20 505.50
  L 590.62 505.50
  Q 590.00 505.50 590.00 506.12
  Z
  M 590.02 488.25
  L 589.98 500.39
  A 0.28 0.28 0.0 0 0 590.26 500.67
  L 600.69 500.71
  A 6.31 5.53 0.2 0 0 607.02 495.20
  L 607.02 493.56
  A 6.31 5.53 0.2 0 0 600.73 488.01
  L 590.30 487.97
  A 0.28 0.28 0.0 0 0 590.02 488.25
  Z"
/>
</svg>
